<?xml version="1.0" standalone="no"?>
<!DOCTYPE svg PUBLIC "-//W3C//DTD SVG 20010904//EN"
 "http://www.w3.org/TR/2001/REC-SVG-20010904/DTD/svg10.dtd">
<svg version="1.0" xmlns="http://www.w3.org/2000/svg"
 width="256.000000pt" height="256.000000pt" viewBox="0 0 256.000000 256.000000"
 preserveAspectRatio="xMidYMid meet">
<metadata>
Created by potrace 1.14, written by Peter Selinger 2001-2017
</metadata>
<g transform="translate(0.000000,256.000000) scale(0.100000,-0.100000)"
fill="#000000" stroke="none">
<path d="M1256 2538 c-101 -9 -171 -24 -266 -55 -78 -26 -256 -114 -287 -142
-10 -9 -34 -28 -54 -43 -85 -63 -225 -219 -267 -297 -74 -136 -130 -268 -138
-326 -1 -11 -3 -20 -4 -20 -3 0 -10 -46 -20 -115 -8 -60 -6 -285 3 -320 2 -8
7 -36 12 -63 4 -26 11 -50 16 -53 5 -3 7 -9 4 -14 -3 -5 1 -22 9 -38 8 -16 13
-32 10 -34 -2 -3 1 -10 9 -16 9 -8 23 -8 50 2 20 7 35 14 33 17 -5 4 -43 146
-51 189 -6 33 -19 200 -16 210 1 3 4 32 6 65 6 101 64 321 89 337 6 4 7 8 3 8
-11 0 40 92 96 175 40 58 184 215 199 215 4 0 18 10 31 23 28 26 152 100 163
97 4 -1 10 2 13 8 13 20 194 78 305 97 48 8 236 8 291 0 116 -17 315 -78 315
-97 0 -5 4 -7 9 -4 10 6 139 -72 201 -122 39 -32 88 -80 159 -157 43 -47 170
-265 154 -265 -3 0 -1 -6 5 -13 16 -19 60 -178 68 -245 9 -67 9 -238 1 -302
-7 -57 -45 -197 -60 -224 -6 -12 -12 -23 -12 -26 -1 -10 -29 -75 -34 -80 -4
-3 -13 -18 -21 -35 -44 -88 -161 -228 -261 -310 -42 -35 -132 -92 -199 -125
-36 -18 -67 -34 -69 -36 -1 -1 3 -21 11 -44 l13 -40 107 53 c59 30 105 57 101
61 -3 3 0 6 7 6 27 0 183 137 254 224 17 21 37 44 44 51 6 8 12 16 12 19 0 4
12 23 28 44 15 21 38 63 52 93 14 30 29 57 35 61 5 4 6 8 1 8 -5 0 -4 6 2 13
6 6 11 17 12 22 5 20 8 31 24 75 60 169 66 421 16 626 -28 116 -83 241 -145
334 -19 29 -35 56 -35 60 0 5 -3 10 -7 12 -5 2 -30 30 -58 63 -27 33 -61 70
-75 81 -14 12 -36 32 -50 44 -14 11 -35 30 -48 41 -12 10 -27 19 -32 19 -6 0
-10 4 -10 8 0 11 -158 99 -193 107 -15 4 -27 12 -27 18 0 6 -2 8 -6 5 -3 -3
-27 3 -53 13 -133 50 -312 72 -475 57z"/>
<path d="M540 1075 c-19 -7 -46 -17 -60 -23 -14 -5 -28 -10 -33 -11 -4 0 -21
-8 -37 -16 -24 -12 -28 -19 -21 -33 4 -9 17 -35 27 -57 34 -75 123 -201 193
-273 38 -40 75 -72 80 -72 6 0 11 -4 11 -9 0 -11 123 -92 196 -129 62 -31 172
-71 214 -78 14 -3 32 -7 40 -10 46 -17 267 -23 355 -10 59 8 207 46 217 55 4
4 -11 54 -34 113 -34 89 -43 105 -57 98 -53 -28 -125 -42 -246 -46 -81 -3
-196 8 -235 23 -8 3 -24 8 -34 10 -37 7 -141 57 -206 99 -83 53 -220 187 -220
214 0 5 -4 10 -9 10 -5 0 -26 36 -47 80 -22 43 -43 79 -49 79 -5 0 -26 -6 -45
-14z"/>
<path d="M205 949 c-27 -11 -64 -26 -82 -34 -17 -8 -36 -15 -43 -15 -8 0 -9
-7 -5 -17 4 -10 12 -31 18 -48 11 -30 115 -216 126 -225 3 -3 21 -27 40 -55
42 -60 205 -225 250 -251 17 -10 31 -22 31 -26 0 -4 29 -23 65 -43 36 -20 65
-41 65 -46 0 -6 4 -7 10 -4 6 3 10 1 10 -5 0 -6 5 -8 10 -5 6 3 10 1 10 -4 0
-6 3 -10 8 -9 4 1 36 -12 72 -29 36 -17 83 -36 105 -43 22 -7 45 -16 51 -21 6
-5 14 -6 17 -2 4 3 13 0 22 -7 8 -7 15 -10 15 -7 0 3 15 1 33 -5 17 -5 46 -11
62 -13 17 -2 30 -4 30 -5 0 -2 34 -7 108 -14 32 -3 63 -8 68 -12 5 -3 9 -2 9
3 0 4 46 7 103 7 56 -1 106 1 111 4 5 3 25 7 45 9 41 4 86 11 86 13 0 1 8 3
17 5 41 8 169 49 173 55 4 7 -67 196 -78 207 -3 2 -14 0 -25 -6 -11 -6 -22 -7
-26 -4 -3 3 -6 0 -6 -7 0 -7 -3 -10 -6 -7 -4 3 -14 2 -23 -2 -34 -18 -221 -43
-321 -43 -133 1 -285 25 -370 59 -8 3 -21 7 -28 9 -7 1 -59 25 -115 53 -165
81 -308 201 -419 351 -55 73 -138 223 -138 248 0 16 -25 14 -85 -9z"/>
</g>
</svg>
